<svg width="35" height="23" viewBox="0 0 35 23" fill="none" xmlns="http://www.w3.org/2000/svg">
<path d="M11.9519 16.1169C11.8488 16.1524 11.7507 16.2009 11.6596 16.2631C11.3318 16.4889 11.1464 16.8641 10.8922 17.1701C10.3452 17.8283 9.23265 18.3557 8.44458 17.8054C8.09554 17.5616 7.87575 16.9584 8.36877 16.7212C8.70691 16.484 9.06959 16.2451 9.24683 15.8557C9.26756 15.8104 9.2861 15.7613 9.27792 15.7123C9.23156 15.4336 7.57525 15.4657 7.3091 15.4347C6.54721 15.3458 5.78586 15.2236 5.03706 15.0556C4.28989 14.8876 3.53945 14.4977 2.77592 14.4268C2.05984 14.3603 1.35684 14.682 0.647308 14.6411C0.082841 14.6084 -0.210573 14.0259 0.17501 13.5591C0.444427 13.2335 0.889456 13.1255 1.30285 13.0366C0.791287 12.6734 0.322807 12.1275 0.363165 11.5014C0.392616 11.0433 0.85237 10.6081 1.32849 10.6435C1.80624 10.679 2.05438 11.1616 2.224 11.5488C2.35107 11.8379 2.57358 12.7001 3.00062 12.2306C3.0677 12.1569 3.0737 12.0462 3.0677 11.947C3.02952 11.3345 2.49778 10.9282 2.12147 10.463C1.75388 10.0087 1.55754 9.24407 2.06366 8.9152C2.27472 8.77777 2.54413 8.76741 2.77592 8.86557C3.25258 9.06736 3.48109 9.51839 3.69488 9.95033C3.88631 9.55711 4.09683 9.14208 4.54785 8.99265C4.79273 8.91139 5.06924 8.97956 5.22412 9.18626C5.55571 9.6291 5.04469 10.1778 4.70929 10.6124C4.06683 11.4447 4.05101 12.7094 4.69511 13.5471C4.75673 13.6273 4.838 13.6922 4.93398 13.7233C5.28248 13.8372 5.46627 13.4866 5.43191 13.2041C5.4041 12.9794 5.28248 12.7787 5.20613 12.5654C5.04524 12.1144 5.1025 11.5641 5.50227 11.2456C5.72696 11.0667 6.03128 11.0089 6.29743 11.1164C6.87117 11.3476 6.91207 12.134 6.95679 12.7574C7.00151 13.3868 7.42909 14.1852 8.0301 13.9921C8.50348 13.84 8.5722 13.1659 8.3535 12.7192C8.13481 12.2726 7.73559 11.9311 7.53271 11.4768C7.32983 11.0236 7.34783 10.4772 7.58016 10.0376C7.72414 9.76599 7.94447 9.53366 8.00392 9.2228C8.0301 9.08536 8.01537 8.94084 7.94556 8.81976C7.81085 8.58525 7.57361 8.58852 7.35601 8.58852C6.28216 8.58961 5.20831 8.38673 4.20917 7.99297C4.0592 7.93352 3.93212 7.82227 3.86231 7.67665C3.67961 7.29379 4.02865 6.99438 4.3657 6.88967C5.26285 6.61153 6.25107 7.12473 7.16185 6.89512C8.66764 6.51554 8.99978 4.51673 10.1134 3.43361C10.4718 3.08511 11.0264 2.82714 11.4627 3.07093C12.049 3.39816 11.9126 4.30621 11.5123 4.84559C10.7799 5.83273 9.44426 6.42392 9.16394 7.62102C9.09413 7.91989 9.10613 8.25966 9.34228 8.4849C9.48789 8.62343 9.70495 8.66869 9.88165 8.57325C10.3556 8.31747 9.97055 7.46286 10.5247 7.18199C10.8546 7.01511 11.2516 7.18635 11.3945 7.52776C11.6656 8.17458 11.2233 8.75159 10.7652 9.17753C10.3796 9.53639 9.93783 9.88652 9.78403 10.3899C9.72349 10.5873 9.71422 10.8164 9.9171 10.9669C10.0774 11.0858 10.2934 11.0913 10.4734 11.0045C10.8257 10.8344 10.9664 10.4614 11.1158 10.121C11.3596 9.56639 11.5069 9.31333 11.875 8.83176C12.1482 8.47508 12.4798 8.1255 12.9167 8.0186C13.353 7.91225 13.8989 8.15985 13.9562 8.60543C14.0124 9.03955 13.6224 9.38423 13.2985 9.67819C12.3031 10.5813 11.7605 11.527 11.4774 12.8414C11.4322 13.053 11.4633 13.2777 11.58 13.4593C11.9497 14.0352 12.7231 13.6131 12.8965 13.0634C13.0503 12.5752 12.921 12.0489 12.9243 11.5368C12.9276 11.0253 13.1523 10.4286 13.6524 10.319C14.2654 10.1848 14.7546 10.9004 14.7639 11.5276C14.7732 12.1548 14.5076 12.7628 14.5234 13.39C14.5534 14.5402 15.4985 15.4445 16.442 16.1022C17.3855 16.7599 18.4512 17.3708 18.96 18.4026C19.272 17.3713 18.6137 16.2974 17.8513 15.5361C17.0888 14.7742 16.1655 14.1132 15.7292 13.1277C15.3033 12.1657 15.4178 11.0651 15.3747 10.0136C15.3316 8.96211 15.0338 7.789 14.1214 7.26434C13.5335 6.92621 12.6849 6.82859 12.4717 6.18449C12.259 5.54149 13.005 4.94758 13.6764 5.03702C14.3478 5.12646 14.8555 5.64402 15.1636 6.24776C15.4903 6.88749 15.6676 7.60084 16.075 8.19585C16.1257 8.27002 16.202 8.32619 16.2909 8.33874C16.5402 8.37419 16.6334 8.07368 16.6285 7.84463C16.6171 7.32924 16.5129 6.68842 16.9465 6.40974C17.5197 6.04215 18.0171 6.80677 18.0252 7.30143C18.0362 7.96025 17.7629 8.7505 17.4275 9.31169C16.9514 10.1096 16.6285 10.5415 16.712 11.4665C16.7371 11.7435 16.8107 12.0429 17.1346 12.1466C17.2928 12.1973 17.4657 12.1787 17.6157 12.1078C17.9718 11.9388 18.1469 11.5799 18.2865 11.2298C18.7571 10.0485 18.9758 8.76686 18.924 7.49613C18.9 6.91203 18.8008 6.28812 18.3983 5.86381C18.0198 5.46459 17.4515 5.3228 16.9154 5.1979C15.9364 4.96939 14.9526 4.73488 14.0314 4.33293C13.3857 4.05097 12.7291 3.6343 12.4984 2.9684C12.2677 2.30249 12.7313 1.39771 13.4337 1.44843C14.2038 1.50406 14.5016 2.49119 15.0927 2.96731C15.1582 3.02021 15.2384 3.05457 15.3224 3.05729C15.5803 3.06438 15.6578 2.8146 15.6463 2.60845C15.6125 1.98454 15.0731 1.30281 15.462 0.813063C15.817 0.366398 16.4895 0.679445 16.7294 1.19701C16.9694 1.71457 16.9405 2.31722 17.0027 2.88441C17.0681 3.4816 17.4837 4.15896 18.1081 4.1366C18.4332 4.12515 18.7119 3.91408 18.846 3.61794C19.0909 3.07911 18.8199 2.48192 18.3814 2.14324C17.9554 1.81438 17.3582 1.56623 17.3713 1.02794C17.3839 0.526194 17.962 0.274774 18.4588 0.345128C19.4181 0.480382 20.2024 1.39662 20.1882 2.36521C20.1828 2.73716 20.0759 3.12383 20.2929 3.46087C20.3982 3.62449 20.5929 3.71884 20.7821 3.67357C20.9839 3.62558 21.0597 3.44397 21.0794 3.2689C21.135 2.77152 20.9185 2.32376 20.7336 1.85855C20.5329 1.35408 20.4904 0.602547 21.0952 0.541464C21.1617 0.53492 21.2288 0.539828 21.2942 0.551826C22.2296 0.72253 22.6528 1.85092 22.4575 2.75788C22.2497 3.72266 21.5506 4.50146 20.9921 5.30262C20.8885 5.45151 20.8639 5.64621 20.9436 5.80927C21.1045 6.13814 21.4999 6.04324 21.7704 5.88726C22.8491 5.26444 23.4376 3.895 23.1463 2.68371C23.0787 2.40175 22.9686 2.10343 23.1938 1.83837C23.4043 1.59077 23.7741 1.5526 24.0451 1.73203C24.6216 2.11434 24.6085 2.8026 24.5731 3.41506C25.1932 3.15001 26.1105 2.99294 26.3684 3.61576C26.6144 4.20859 25.937 4.74251 25.3797 5.06101C23.5107 6.12941 21.862 7.58175 20.5673 9.30188C19.945 10.1287 19.3832 11.0864 19.4198 12.1209C19.434 12.5251 19.6876 13.0284 20.0851 12.9515C20.5193 12.867 20.5149 12.2589 20.5034 11.8166C20.4871 11.1932 20.871 9.61601 21.6684 9.52766C21.9432 9.49712 22.1559 9.71636 22.2132 9.96887C22.3146 10.4194 21.766 11.2243 21.9143 11.4387C21.9951 11.5554 22.4886 11.2549 22.6097 10.9816C22.7308 10.709 22.734 10.4014 22.7586 10.1036C22.8262 9.27952 23.1174 8.44672 23.6361 7.79663C23.9819 7.36306 25.1277 6.3721 25.7145 6.87658C26.0892 7.1989 25.7816 7.72301 25.5433 8.02133C24.9341 8.78486 23.7714 9.89198 23.9884 10.2028C24.3745 10.8584 25.2717 8.75541 26.1661 9.23643C26.3913 9.35751 26.5157 9.60184 26.5146 9.85707C26.513 10.349 26.1819 10.7095 25.8449 11.0215C25.1397 11.6732 24.3413 12.2235 23.4807 12.65C22.8284 12.9734 22.1309 13.2324 21.5724 13.6993C20.9392 14.2288 20.5084 15.1211 20.9163 15.896C21.0166 16.0864 21.207 16.2205 21.4219 16.2331C21.7916 16.2549 21.9874 15.92 22.1636 15.6364C23.6361 13.2586 26.7917 12.2186 27.926 9.63783C27.9746 9.52712 27.9959 9.40495 27.9724 9.28661C27.883 8.84321 27.3376 8.88357 26.9836 8.68887C26.6711 8.51708 26.5102 8.10968 26.621 7.77045C26.7164 7.47922 27.0027 7.26543 27.3059 7.2398C27.3905 7.23271 27.4494 7.15254 27.4243 7.07128C27.2187 6.39774 26.1672 6.07106 26.3412 5.36479C26.4459 4.94049 27.0114 4.77851 27.4161 4.94267C27.8208 5.10683 28.0384 5.42969 28.28 5.794C28.7256 6.46591 29.1575 7.18963 29.2175 7.99351C29.2442 8.34801 29.2159 8.7565 29.4755 8.99974C29.6364 9.15081 29.8676 9.19226 30.0819 9.24407C30.6818 9.38914 31.1967 9.60729 31.6853 9.98469C32.0856 10.2939 32.4521 10.8595 32.1544 11.2691C31.9384 11.5663 31.4906 11.5756 31.1449 11.4528C30.7991 11.3301 30.4893 11.1076 30.131 11.028C29.326 10.8497 28.6219 11.4785 27.9964 12.0157C26.6651 13.1593 25.2521 14.441 24.9357 16.1671C24.8932 16.4 24.873 16.653 25.1348 16.8363C25.2733 16.9334 25.4446 16.9743 25.6131 16.9584C26.1203 16.9121 26.5381 16.4589 26.573 15.9588C26.6111 15.4145 26.2441 14.8467 26.4677 14.3494C26.6117 14.0298 27.0049 13.846 27.3425 13.9414C27.5835 14.0096 27.7744 14.2141 27.8475 14.4519C27.8726 14.5331 27.9811 14.5462 28.0226 14.4715C28.37 13.8487 28.7768 13.2586 29.2366 12.7132C29.452 12.458 29.7198 12.1929 30.0536 12.1918C30.5608 12.1907 30.8585 12.8256 30.744 13.3191C30.6289 13.8132 30.2581 14.1983 29.9565 14.6062C29.6549 15.0142 29.4057 15.5388 29.5796 16.0149C29.6118 16.1038 29.6653 16.1933 29.7536 16.2271C29.8343 16.2576 29.9254 16.2336 30.0039 16.1976C30.4092 16.0111 30.6033 15.547 30.7009 15.1118C30.8247 14.5621 30.8651 13.9638 31.3445 13.5755C31.5446 13.4135 31.8157 13.3562 32.0567 13.4473C32.3807 13.5695 32.4783 13.8727 32.5116 14.1792C32.5214 14.2681 32.6316 14.3046 32.691 14.2381C32.8721 14.0369 32.8901 13.6878 32.799 13.4135C32.6605 12.9963 32.3518 12.6396 32.3709 12.1749C32.3785 11.9824 32.4658 11.7981 32.625 11.6895C32.8688 11.5227 33.0979 11.6306 33.2849 11.7637C34.1363 12.3691 34.4231 13.5744 34.1303 14.5773C33.8369 15.5803 33.0575 16.3842 32.1636 16.9246C31.4001 17.3866 30.5504 17.6173 29.7029 17.867C29.6407 17.8856 29.6178 17.9647 29.6636 18.011C29.7956 18.1436 29.8812 18.3224 29.897 18.509C29.9172 18.7462 29.8251 18.9911 29.6527 19.1558C29.4247 19.3734 29.0844 19.4377 28.7708 19.4045C28.3127 19.3559 27.865 19.1492 27.4303 19.0042C26.9793 18.8536 26.5261 18.7064 26.0614 18.6049C25.1506 18.4059 24.242 18.4473 23.3678 18.7816C22.7117 19.0325 22.0834 19.7988 22.481 20.378C22.7548 20.7766 23.3607 20.7897 23.7964 20.5808C24.2322 20.372 24.5676 20.0022 24.9646 19.7262C25.3617 19.4503 25.8967 19.2719 26.3237 19.4988C26.7508 19.7257 26.8107 20.4925 26.3494 20.6365C26.141 20.7014 25.8558 20.6583 25.6736 20.7265C25.5689 20.7657 25.5826 20.9179 25.6933 20.937C28.34 21.3858 31.6128 20.1636 32.8639 17.5933C33.057 17.1968 33.2255 16.7588 33.6531 16.5609C33.8309 16.4785 34.1046 16.4921 34.2693 16.5979C34.512 16.7534 34.5148 16.9252 34.4897 17.1717C34.2693 19.3592 32.3027 21.0379 30.1959 21.6672C28.0891 22.2966 25.8394 22.109 23.6432 22.0114C19.3265 21.8194 15.0033 21.9994 10.6828 22.0599C9.00905 22.0834 7.31183 22.0861 5.69424 21.6558C3.41947 21.0504 1.34703 19.5135 0.36971 17.3718C0.0877494 16.7534 -0.0971339 15.9893 0.461879 15.4554C0.753111 15.1772 1.21777 15.1816 1.47737 15.4886C1.75879 15.8213 1.56791 16.2407 1.57118 16.6334C1.57391 16.9748 1.93113 17.3691 2.20273 17.1624C2.49069 16.9432 2.50705 16.3378 2.5714 16.0166C2.62267 15.7602 2.7601 15.487 3.06988 15.481C3.12987 15.4799 3.19041 15.4914 3.24604 15.5137C3.48655 15.6092 3.61798 15.8361 3.68234 16.0706C3.75596 16.3411 3.74887 16.6269 3.73033 16.9066C3.6987 17.3882 3.63544 17.8709 3.68343 18.3508C3.73579 18.8727 3.92558 19.3477 4.36406 19.6646C4.66347 19.8811 5.53117 20.2313 5.76459 19.7639C6.16272 18.966 4.97379 17.8583 5.44282 17.0997C5.77659 16.5603 6.66883 16.6252 7.0086 17.1608C7.34837 17.6963 7.24039 18.7571 7.58452 19.2894C8.01646 19.9569 8.78981 20.1822 9.53316 20.2869C10.4745 20.4194 11.4583 20.6021 12.3588 20.1882C12.6964 20.0327 12.3337 19.6581 12.1853 19.4759C11.8832 19.104 11.611 18.6737 11.5881 18.1948C11.5647 17.716 11.8723 17.194 12.3473 17.1275C12.7198 17.0752 13.0798 17.308 13.3143 17.602C13.588 17.945 13.6949 18.461 14.0794 18.6949C14.3379 18.852 14.6483 18.9098 14.9471 18.8705C15.5852 18.7871 15.8895 18.2723 15.4756 17.7302C14.861 16.9246 13.8504 16.2805 12.8436 16.0728C12.5513 16.0177 12.2339 16.0198 11.9519 16.1169Z" fill="white"/>
<script xmlns=""/></svg>